<?xml version="1.0" encoding="utf-8"?>
<!-- Generator: Adobe Illustrator 16.0.0, SVG Export Plug-In . SVG Version: 6.00 Build 0)  -->
<!DOCTYPE svg PUBLIC "-//W3C//DTD SVG 1.1//EN" "http://www.w3.org/Graphics/SVG/1.1/DTD/svg11.dtd">
<svg version="1.1" id="Layer_1" xmlns="http://www.w3.org/2000/svg" xmlns:xlink="http://www.w3.org/1999/xlink" x="0px" y="0px"
	 width="283.46px" height="283.46px" viewBox="0 0 283.46 283.46" enable-background="new 0 0 283.46 283.46" xml:space="preserve">
<g>
	<path fill="#FFFFFF" d="M231.334,244.771c-22.804,6.889-47.845-3.037-59.524-24.84c-3.35-6.253-5.262-12.891-5.855-19.535
		c-7.198,3.586-15.31,5.612-23.898,5.612c-8.589,0-16.7-2.026-23.899-5.614c-0.595,6.646-2.506,13.283-5.855,19.537
		c-11.68,21.803-36.72,31.729-59.524,24.84c-0.908-0.254-1.051-0.095-1.128,0.093c-0.053,0.125-0.049,0.438,0.749,0.903
		c31.811,16.911,71.036,5.958,89.657-24.364c18.621,30.322,57.847,41.275,89.658,24.364c0.799-0.466,0.801-0.778,0.749-0.903
		C232.386,244.677,232.24,244.518,231.334,244.771z"/>
	<path fill="#FFFFFF" d="M178.598,28.14c17.367,16.304,21.292,42.953,8.25,63.97c-3.74,6.027-8.532,11.002-13.989,14.839
		c6.704,4.44,12.515,10.452,16.809,17.89c4.295,7.438,6.596,15.476,7.088,23.504c6.053-2.808,12.756-4.471,19.847-4.697
		c24.722-0.787,45.838,15.936,51.274,39.129c0.234,0.914,0.443,0.959,0.645,0.932c0.135-0.018,0.403-0.176,0.407-1.1
		c-1.26-36.006-30.358-64.499-65.928-65.464c16.949-31.287,6.821-70.735-23.729-89.828c-0.803-0.459-1.074-0.304-1.156-0.197
		C177.989,27.276,177.925,27.482,178.598,28.14z"/>
	<path fill="#FFFFFF" d="M17.375,182.104c5.437-23.193,26.553-39.917,51.274-39.13c7.09,0.226,13.794,1.889,19.846,4.695
		c0.493-8.026,2.795-16.064,7.089-23.501c4.294-7.438,10.104-13.45,16.811-17.89c-5.458-3.838-10.25-8.812-13.991-14.839
		c-13.042-21.016-9.118-47.665,8.249-63.97c0.675-0.66,0.609-0.863,0.485-1.024c-0.083-0.108-0.354-0.261-1.156,0.197
		C75.43,45.736,65.303,85.183,82.252,116.469c-35.57,0.965-64.669,29.459-65.929,65.464c0.004,0.925,0.273,1.082,0.408,1.1
		C16.932,183.062,17.142,183.015,17.375,182.104z"/>
	<g>
		<path fill="#FFFFFF" d="M117.969,188.219c0.21,0.147,0.415,0.293,0.63,0.434c19.319,12.465,44.75,7.851,58.563-10.006
			l-12.544-10.23c-8.665,11.524-24.944,14.574-37.245,6.636c-0.128-0.082-0.25-0.169-0.374-0.256l3.983-5.919l-22.224,3.331
			l5.291,21.842L117.969,188.219z"/>
		<path fill="#FFFFFF" d="M186.304,154.594c0.023-0.256,0.047-0.506,0.061-0.764c1.136-22.963-15.576-42.679-37.947-45.714
			l-2.588,15.979c14.313,1.742,25.094,14.315,24.37,28.938c-0.007,0.152-0.021,0.301-0.035,0.451l-7.117-0.49l13.997,17.582
			l16.27-15.504L186.304,154.594z"/>
		<path fill="#FFFFFF" d="M123.034,112.203c-0.232,0.107-0.461,0.212-0.691,0.329c-20.454,10.498-29.173,34.829-20.615,55.72
			l15.132-5.748c-5.648-13.267-0.149-28.89,12.876-35.574c0.136-0.07,0.271-0.132,0.408-0.195l3.134,6.409l8.229-20.913
			l-21.562-6.338L123.034,112.203z"/>
	</g>
</g>
</svg>
